<svg xmlns="http://www.w3.org/2000/svg" width="25" height="24" fill="none"><path fill="#fff" fill-rule="evenodd" d="M5.5 4h14a3 3 0 0 1 3 3 4.978 4.978 0 0 0-3-1h-14a4.978 4.978 0 0 0-3 1 3 3 0 0 1 3-3Zm19 11V7a5 5 0 0 0-5-5h-14a5 5 0 0 0-5 5v10a5 5 0 0 0 5 5h14a5 5 0 0 0 5-5v-2Zm-2-4a3 3 0 0 0-3-3h-14a3 3 0 0 0-3 3c.836-.628 1.874-1 3-1H9c.775 0 1.388.662 1.926 1.244l.11.12c.366.391.886.636 1.464.636s1.098-.245 1.463-.637l.111-.12C14.612 10.664 15.225 10 16 10h3.5c1.126 0 2.164.372 3 1Zm-20 4v2a3 3 0 0 0 3 3h14a3 3 0 0 0 3-3v-2a3 3 0 0 0-3-3h-2.67c-.535 0-1.014.301-1.376.697A3.99 3.99 0 0 1 12.5 14a3.99 3.99 0 0 1-2.954-1.303C9.184 12.3 8.706 12 8.17 12H5.5a3 3 0 0 0-3 3Z" clip-rule="evenodd"/></svg>