<?xml version="1.0" encoding="UTF-8" standalone="no"?>
<svg
   viewBox="0 0 108.5 108.5"
   version="1.1"
   id="svg228"
   sodipodi:docname="cie.svg"
   width="108.5"
   height="108.5"
   inkscape:version="1.2.2 (b0a8486541, 2022-12-01)"
   xmlns:inkscape="http://www.inkscape.org/namespaces/inkscape"
   xmlns:sodipodi="http://sodipodi.sourceforge.net/DTD/sodipodi-0.dtd"
   xmlns="http://www.w3.org/2000/svg"
   xmlns:svg="http://www.w3.org/2000/svg"
   xmlns:rdf="http://www.w3.org/1999/02/22-rdf-syntax-ns#"
   xmlns:cc="http://creativecommons.org/ns#"
   xmlns:dc="http://purl.org/dc/elements/1.1/">
  <defs
     id="defs232" />
  <sodipodi:namedview
     id="namedview230"
     pagecolor="#ffffff"
     bordercolor="#000000"
     borderopacity="0.25"
     inkscape:showpageshadow="2"
     inkscape:pageopacity="0.0"
     inkscape:pagecheckerboard="0"
     inkscape:deskcolor="#d1d1d1"
     showgrid="false"
     inkscape:zoom="7.7235023"
     inkscape:cx="83.187649"
     inkscape:cy="43.633055"
     inkscape:window-width="1916"
     inkscape:window-height="1021"
     inkscape:window-x="0"
     inkscape:window-y="0"
     inkscape:window-maximized="1"
     inkscape:current-layer="svg228" />
  <title
     id="title212">Risorsa 2</title>
  <g
     id="Livello_2"
     data-name="Livello 2"
     transform="translate(4)">
    <g
       id="Livello_1-2"
       data-name="Livello 1">
      <path
         d="M 30.6,15.7 34,14.5 75.5,0.2 a 3.1,3.1 0 0 1 3.1,0.6 7,7 0 0 1 1.9,2.8 c 1.2,3.1 2.4,6.1 3.6,9.3 a 22.1,22.1 0 0 1 1.2,8.9 C 85.2,23.1 85,24.4 85,25.7 a 15,15 0 0 0 0,3 c 0.1,1.3 0.2,2.6 0.4,3.9 a 14.2,14.2 0 0 0 2.8,7.1 c 2.8,3.6 5.5,7.3 8.3,11 a 46.7,46.7 0 0 1 3.8,6 5.5,5.5 0 0 1 0.7,2.5 4.1,4.1 0 0 1 -0.4,2.2 10.9,10.9 0 0 1 -2.7,3.3 19.8,19.8 0 0 1 -4.1,2.8 9.6,9.6 0 0 0 -3,2.3 3.4,3.4 0 0 0 -0.5,3.6 l 0.9,2.3 a 3.8,3.8 0 0 1 -0.5,4.1 10.5,10.5 0 0 1 -0.8,1.1 3.2,3.2 0 0 0 -0.4,2.5 l 0.3,1.2 A 3.1,3.1 0 0 1 89,87.2 c -0.6,0.6 -1.1,1.3 -1.6,1.9 a 6.1,6.1 0 0 0 -1.5,4.4 12.7,12.7 0 0 0 0.6,2.8 16,16 0 0 1 0.5,4.9 7.6,7.6 0 0 1 -4.1,6.6 6.9,6.9 0 0 1 -4,0.6 l -5.2,-0.9 c -6.5,-1.1 -12.8,-2.7 -19.2,-4.1 L 47.8,102 H 47.6 C 58.8,94.8 66.1,84.8 68.8,71.8 A 44.9,44.9 0 0 0 61.7,35.7 C 54.2,24.6 43.6,18.1 30.6,15.7 Z"
         fill="#ffffff"
         id="path214" />
      <path
         d="M 12.2,57.5 C 7.4,57.5 4.2,56.2 2.5,53.6 0.8,51 0,46.7 0,40.7 0,34.7 0.9,30.4 2.6,27.9 4.3,25.4 7.5,24.1 12.2,24.1 a 39,39 0 0 1 9.2,1.1 v 4.3 a 50,50 0 0 0 -8.6,-0.8 c -2.8,0 -4.7,0.9 -5.7,2.6 -1,1.7 -1.6,4.8 -1.6,9.5 0,4.7 0.5,7.8 1.5,9.5 1,1.7 2.9,2.5 5.7,2.5 a 51,51 0 0 0 8.7,-0.7 v 4.4 a 43.8,43.8 0 0 1 -9.2,1 z"
         fill="#ffffff"
         id="path216" />
      <path
         d="m 25.5,29.3 v -5.4 h 5.2 v 5.4 z m 0,27.7 V 33.3 h 5.2 V 57 Z"
         fill="#ffffff"
         id="path218" />
      <path
         d="m 52.9,52.7 h 1.3 v 3.8 a 44.2,44.2 0 0 1 -9.6,1.1 c -3.5,0 -6,-0.9 -7.5,-2.9 -1.5,-2 -2.3,-5 -2.3,-9.2 0,-8.4 3.4,-12.6 10.3,-12.6 6.9,0 9.9,3.6 9.9,10.9 l -0.3,3.6 H 40.1 a 6.8,6.8 0 0 0 1.3,4.4 c 0.8,0.9 2.3,1.3 4.6,1.3 z M 50,43.4 c 0,-2.4 -0.3,-4 -1.1,-4.9 -0.8,-0.9 -2,-1.4 -3.7,-1.4 a 5,5 0 0 0 -3.9,1.4 c -0.8,1 -1.2,2.6 -1.2,4.9 z"
         fill="#ffffff"
         id="path220" />
      <path
         d="M 20.2,95.7 V 63.3 h 5.3 v 32.4 z"
         fill="#ffffff"
         id="path222" />
      <path
         d="M 42.2,95.7 H 30.9 V 63.3 h 11.3 c 4.9,0 8.4,1.2 10.2,3.8 1.8,2.6 2.7,6.5 2.7,11.9 a 34.8,34.8 0 0 1 -0.5,6.9 16.9,16.9 0 0 1 -1.9,5.2 c -1.8,3.1 -5.3,4.6 -10.5,4.6 z M 49.7,79 c 0,-4 -0.5,-6.8 -1.5,-8.5 -1,-1.7 -3,-2.6 -6,-2.6 h -6 v 23.2 h 6 c 3.1,0 5.2,-1.2 6.2,-3.5 a 11.3,11.3 0 0 0 1,-3.7 33.8,33.8 0 0 0 0.3,-4.9 z"
         fill="#ffffff"
         id="path224" />
    </g>
  </g>
  <metadata
     id="metadata776">
    <rdf:RDF>
      <cc:Work
         rdf:about="">
        <dc:title>Risorsa 2</dc:title>
      </cc:Work>
    </rdf:RDF>
  </metadata>
</svg>
