<?xml version="1.0" encoding="UTF-8" standalone="no"?>
<!-- Generator: Adobe Illustrator 22.1.0, SVG Export Plug-In . SVG Version: 6.00 Build 0)  -->

<svg
   version="1.1"
   id="logo_IDEM_colorato"
   x="0px"
   y="0px"
   viewBox="0 0 43 43.000001"
   enable-background="new 0 0 385 259.5"
   xml:space="preserve"
   sodipodi:docname="idem.svg"
   inkscape:version="1.2.2 (b0a8486541, 2022-12-01)"
   width="43"
   height="43"
   xmlns:inkscape="http://www.inkscape.org/namespaces/inkscape"
   xmlns:sodipodi="http://sodipodi.sourceforge.net/DTD/sodipodi-0.dtd"
   xmlns="http://www.w3.org/2000/svg"
   xmlns:svg="http://www.w3.org/2000/svg"><defs
   id="defs585" /><sodipodi:namedview
   id="namedview583"
   pagecolor="#ffffff"
   bordercolor="#000000"
   borderopacity="0.25"
   inkscape:showpageshadow="2"
   inkscape:pageopacity="0.0"
   inkscape:pagecheckerboard="0"
   inkscape:deskcolor="#d1d1d1"
   showgrid="false"
   inkscape:zoom="6.2581888"
   inkscape:cx="21.491841"
   inkscape:cy="62.158559"
   inkscape:window-width="1916"
   inkscape:window-height="1021"
   inkscape:window-x="0"
   inkscape:window-y="0"
   inkscape:window-maximized="1"
   inkscape:current-layer="logo_IDEM_colorato" />
<path
   fill="#26a33e"
   d="m 4.1349002,11.769605 c 0.1682939,0 0.3051726,-0.201091 0.3051726,-0.448307 0,-0.247156 -0.1368795,-0.448247 -0.3051726,-0.448247 -0.1682857,0 -0.3051653,0.201091 -0.3051653,0.448247 -8e-7,0.247216 0.1368796,0.448307 0.3051653,0.448307 z m 1.5504964,0.05488 c 0.1682106,0 0.3050913,-0.201092 0.3050913,-0.448308 0,-0.247155 -0.1368795,-0.448246 -0.3050913,-0.448246 -0.1682857,0 -0.3051651,0.201091 -0.3051651,0.448246 0,0.247217 0.1368794,0.448308 0.3051651,0.448308 z m 0.4711259,1.304758 c -0.1228712,-0.08766 -0.2709477,-0.01237 -0.3305358,0.168146 -0.1724744,0.521455 -0.4505128,0.764359 -0.8751685,0.764359 -0.4445516,0 -0.7590669,-0.262599 -0.8630149,-0.720536 -0.043164,-0.190384 -0.1832666,-0.293292 -0.3128251,-0.229835 -0.1296402,0.06346 -0.199692,0.269285 -0.1564539,0.459657 0.1729609,0.762361 0.6709746,1.217465 1.3322939,1.217465 0.6184688,0 1.0626986,-0.394845 1.3201239,-1.173641 0.059745,-0.180501 0.00845,-0.398029 -0.1144196,-0.485615 z M 8.8907413,12.71932 c 0,-2.791204 -1.8026033,-5.062055 -4.0182703,-5.062055 -2.2156746,0 -4.01827774,2.270851 -4.01827774,5.062055 0,2.623701 1.59284394,4.787102 3.62421184,5.037394 0.095735,0.293172 0.2368864,0.525065 0.3535561,0.716515 0.3888382,0.637735 1.1002307,1.80641 0.1996927,5.498178 -0.018519,0.01324 -0.03712,0.02543 -0.055318,0.04046 C 3.8385889,24.952 2.4301346,23.448112 2.4161992,23.43285 1.9603767,22.937824 1.3154911,23.073968 0.97585981,23.740751 c -0.33955636,0.66689 -0.25130724,1.608683 0.20065659,2.111401 0.051533,0.05738 0.7055139,0.769458 1.6427688,1.191965 -0.047748,0.305539 -0.084786,0.600781 -0.1172393,0.860535 C 2.630947,28.473607 2.5759511,29.037116 2.5381055,29.466977 2.0252749,29.206509 1.6539994,28.8106 1.6467516,28.802801 1.1908465,28.307776 0.54596014,28.443798 0.2063296,29.1107 c -0.33955632,0.666771 -0.25130719,1.608565 0.20065664,2.111402 0.0865588,0.09628 1.86959606,2.038304 3.84506926,1.352725 0.057659,0.788486 0.1302011,1.277966 0.1394605,1.338406 0.1144194,0.74934 0.6199283,1.219644 1.1303427,1.053339 0.4418973,-0.144079 0.742799,-0.720838 0.742799,-1.360063 0,-0.09889 -0.00725,-0.199421 -0.022302,-0.299966 -0.00304,-0.02082 -0.1636187,-1.130338 -0.1636187,-2.749211 0,-1.452082 0.1291533,-3.314137 0.6170253,-5.167675 0.4819189,-1.830719 0.6696064,-3.303031 0.6696064,-4.506236 0,-1.612355 -0.3374532,-2.740029 -0.7551917,-3.600452 1.3479847,-0.817824 2.2805658,-2.556101 2.2805658,-4.563651 z M 4.872471,15.601067 c -1.397349,0 -2.5341311,-1.292755 -2.5341311,-2.881745 0,-1.589062 1.1367821,-2.881805 2.5341311,-2.881805 1.3973405,0 2.534124,1.292743 2.534124,2.881805 0,1.58899 -1.1367835,2.881745 -2.534124,2.881745 z"
   id="path510"
   style="stroke-width:0.0999358" />
<g
   id="g556"
   style="fill:#ffffff;fill-opacity:1"
   transform="matrix(0.13889871,0,0,0.21874691,-6.6731078,-8.9879965)">
	<path
   fill="#777676"
   d="m 134.8848,99.4838 c -0.3203,-0.0463 -0.64261,-0.017 -0.9541,-0.017 h -10.9346 c -0.6924,0 -1.1543,0.0615 -1.1543,0.6748 0,0.8588 3.84959,10.9853 3.84959,26.6958 0,11.84419 -4.08099,22.09219 -4.08099,22.70549 0,1.166 1.9248,0.98241 2.9257,0.98241 h 4.2207 v 0.0127 h 9.6006 V 99.4838 Z"
   id="path512"
   style="fill:#ffffff;fill-opacity:1" />
	<path
   fill="#777676"
   d="m 198.5654,76.0937 c 0,0 0,11.4614 0,23.26369 l -32.36621,0.147 -0.1308,0.0239 c -3.6983,0.6782 -6.9971,1.8896 -9.8047,3.6011 -6.9151,4.4018 -10.9278,10.9731 -11.95119,19.5463 -0.3506,7.4165 1.88379,13.91021 6.63089,19.4082 4.414,4.79691 10.06441,7.60941 16.82811,8.39461 l 0.0908,0.01 21.40041,-0.14742 0.1348,-0.0264 c 6.5351,-1.2578 11.8457,-4.1709 15.7851,-8.65819 3.4151,-4.207 5.4727,-9.11331 6.15242,-14.62691 l 0.0117,-0.0914 V 76.0937 Z m 0,50.0947 c -1.2021,6.45799 -4.9736,10.2276 -11.5244,11.5186 h -18.43941 c -6.461,-1.2012 -10.23151,-4.97661 -11.5215,-11.5361 -0.002,-0.128 -0.005,-0.2564 -0.005,-0.3833 0,-3.0811 0.7383,-5.8443 2.1904,-8.2247 2.1006,-2.8667 4.75301,-4.5927 8.09869,-5.27879 0.37401,-0.001 31.11031,-0.145 31.20111,-0.1455 v 14.04979 z"
   id="path514"
   style="fill:#ffffff;fill-opacity:1" />
	<g
   id="g522"
   style="fill:#ffffff;fill-opacity:1">
		<g
   id="g520"
   style="fill:#ffffff;fill-opacity:1">
			<g
   id="g518"
   style="fill:#ffffff;fill-opacity:1">
				<path
   fill="#777676"
   d="m 284.34668,122.9077 -0.0117,-0.0913 c -0.67969,-5.5118 -2.7373,-10.4175 -6.11429,-14.5816 -3.97751,-4.53269 -9.28812,-7.4463 -15.82321,-8.70409 l -0.1348,-0.0259 -21.5547,-0.1479 -0.1006,0.0127 c -6.84959,0.8862 -12.4453,3.6313 -16.6299,8.15919 -4.7822,5.57171 -7.01559,12.08051 -6.6738,19.3867 1.0322,8.8833 5.4785,15.7388 13.2227,20.4809 l 0.0215,0.0137 c 2.5322,1.4902 5.96579,2.52251 10.20599,3.06641 l 0.0947,0.0117 h 43.49809 V 137.707 c 0,0 -42.42679,0 -42.75099,0 -0.2686,-0.0586 -2.30368,-0.5078 -2.56149,-0.5645 -3.68851,-1.5 -6.2139,-3.6718 -7.62311,-6.55861 1.0596,0 52.93559,0 52.93559,0 v -7.67619 z m -24.25589,-10.7691 c 0.80499,0.10852 1.90155,0.30426 3.17596,0.79233 2.98639,1.14372 4.70941,3.01233 5.12485,3.52898 0.42288,0.52589 0.7529,0.9702 1.00589,1.34081 h -37.04111 c 0.51495,-0.7966 1.24417,-1.73116 2.26321,-2.62138 2.56644,-2.24205 5.41879,-2.84689 6.82669,-3.04073 1.38777,-0.0808 13.13374,-0.7429 18.64451,-1e-5 z"
   id="path516"
   style="fill:#ffffff;fill-opacity:1" />
			</g>
		</g>
	</g>
	<path
   fill="#939393"
   d="m 357.14359,122.9301 c -0.9913,-8.81831 -5.43948,-15.6777 -13.22171,-20.3872 l -0.0156,-0.009 c -2.53418,-1.4917 -5.98151,-2.5395 -10.24609,-3.1137 l -0.0997,-0.01369 h -43.5517 v 51.082 h 12.832 c 0,0 0,-35.48241 0,-38.25191 h 13.40039 c 0,2.7695 0,38.25191 0,38.25191 h 12.78131 c 0,0 0,-35.38721 0,-38.2163 1.7529,0.0406 4.74411,0.1104 4.74411,0.1104 0.1846,5e-4 1.10349,0.0908 4.40918,1.7324 3.47562,2.3272 5.50189,5.5278 6.19431,9.7778 0,0.3199 0,26.5957 0,26.5957 h 12.7832 v -27.4746 z"
   id="path524"
   style="fill:#ffffff;fill-opacity:1" />
	<g
   id="g532"
   style="fill:#ffffff;fill-opacity:1">
		<g
   id="g530"
   style="fill:#ffffff;fill-opacity:1">
			<g
   id="g528"
   style="fill:#ffffff;fill-opacity:1">
				<path
   fill="#777676"
   d="m 143.0605,167.92479 c -2.01901,-2.30859 -4.70311,-3.76959 -7.99261,-4.3819 l -0.0401,-0.008 -10.98039,-0.1055 -0.0337,0.005 c -3.4175,0.4014 -6.2862,1.81551 -8.5166,4.209 -2.2544,2.6445 -3.3867,5.70511 -3.3848,9.1172 0,0.2256 0.007,0.457 0.0171,0.68851 0.5034,4.35059 2.5371,7.69629 6.0303,9.9218 1.45261,0.88089 3.1137,1.48149 4.9775,1.81549 l 0.044,0.006 16.91401,0.0782 c -0.0298,0.37891 -0.0801,0.73041 -0.15041,1.0547 -0.7383,2.77921 -2.4765,4.4619 -5.4516,5.2207 l -22.4414,0.0781 v 6.0625 h 22.2822 c 4.48729,-0.5069 7.93849,-2.7442 10.25729,-6.60939 0.7695,-1.3027 1.2749,-3.02341 1.55571,-5.16991 l 0.004,-0.0293 V 175.375 c -0.3379,-2.8643 -1.36919,-5.3409 -3.09089,-7.45021 z m -9.1044,1.57031 c 0,0 3.64635,1.51807 4.21724,2.10638 1.40956,1.45259 1.80727,3.19199 1.93945,4.0498 v 7.55571 l -16.4175,-0.0762 c -1.7764,-0.3613 -3.1982,-1.289 -4.3447,-2.84671 -0.76761,-1.24409 -1.16411,-2.69719 -1.16411,-4.373 0,-0.0781 0.002,-0.15919 0.003,-0.24509 0.0733,-0.58514 0.39606,-2.57632 2.11145,-4.23422 1.59692,-1.5434 3.42865,-1.8584 4.03705,-1.93668 4.43204,-0.0417 9.61772,1e-5 9.61772,1e-5 z"
   id="path526"
   style="fill:#ffffff;fill-opacity:1" />
			</g>
		</g>
	</g>
	<g
   id="g536"
   style="fill:#ffffff;fill-opacity:1">
		<path
   fill="#777676"
   d="m 199.70119,163.3232 c -2.15729,0.2773 -3.89259,0.7861 -5.21289,1.5625 -3.959,2.41209 -6.2471,5.9346 -6.76271,10.41701 l 0.4971,0.0586 h -0.50099 v 14.04489 h 6.09959 v -13.7139 c -0.0127,-0.21089 0.2187,-1.09079 0.7139,-2.37199 1.40131,-2.37309 3.25682,-3.62599 5.71681,-3.9063 l 21.9296,0.003 v -6.0986 h -22.4472 z"
   id="path534"
   style="fill:#ffffff;fill-opacity:1" />
	</g>
	<g
   id="g540"
   style="fill:#ffffff;fill-opacity:1">
		<path
   fill="#777676"
   d="m 237.78809,163.3183 -0.0352,0.004 c -2.15819,0.27829 -3.89549,0.78619 -5.2148,1.56349 -3.95999,2.41409 -6.24608,5.93361 -6.76079,10.41701 l 0.49809,0.0596 h -0.502 v 14.04491 h 6.09961 v -13.7149 c -0.0126,-0.2099 0.22079,-1.08789 0.711,-2.36809 1.4014,-2.375 3.2598,-3.6299 5.71869,-3.9102 l 21.93269,0.004 v -6.09959 h -22.44729 z"
   id="path538"
   style="fill:#ffffff;fill-opacity:1" />
	</g>
	<g
   id="g548"
   style="fill:#ffffff;fill-opacity:1">
		<g
   id="g546"
   style="fill:#ffffff;fill-opacity:1">
			<g
   id="g544"
   style="fill:#ffffff;fill-opacity:1">
				<rect
   x="351.52148"
   y="163.3203"
   fill="#777676"
   width="6.0995998"
   height="26.086901"
   id="rect542"
   style="fill:#ffffff;fill-opacity:1" />
			</g>
		</g>
	</g>
	<path
   fill="#777676"
   d="m 183.79539,177.2421 c 0.0142,-0.27631 0.0337,-0.5546 0.0337,-0.8261 0.004,-3.2305 -1.03519,-6.1153 -3.0869,-8.5791 l -0.3833,0.31931 0.3623,-0.34181 c -2.4678,-2.63179 -5.437,-4.14549 -8.83499,-4.49319 l -21.6313,-0.004 v 3.18268 2.91299 l 21.7666,0.0801 c 2.47119,0.64549 4.08929,1.9082 5.0049,3.8721 h -27.2041 l -0.0684,0.4189 c -0.1655,1.002 -0.2466,1.95219 -0.2466,2.8555 0,1.2939 0.17191,2.48439 0.51759,3.5674 1.936,5.3418 5.83112,8.4668 11.44431,9.1953 l 0.0371,0.006 h 21.53421 v -10e-4 h 0.7549 v -12.1651 z m -22.4448,5.99029 c 0,0 -2.79044,-0.83711 -4.16116,-2.49815 -0.40854,-0.49507 -0.66992,-0.95995 -0.82513,-1.27045 h 21.38672 c 0,1.27574 0,2.55147 0,3.82721 -8.2823,-0.084 -16.40043,-0.0586 -16.40043,-0.0586 z"
   id="path550"
   style="fill:#ffffff;fill-opacity:1" />
	<path
   fill="#777676"
   d="m 310.6611,176.56149 c 0,-0.0469 0.006,-0.0947 0.006,-0.1416 0,-0.0498 -0.006,-0.0987 -0.006,-0.1485 v -0.1337 h -0.005 c -0.0567,-3.1163 -1.08398,-5.90919 -3.0762,-8.3018 l -0.38278,0.3213 v -9.9e-4 l 0.3613,-0.3437 c -2.4668,-2.62801 -5.43561,-4.14461 -8.83401,-4.49319 l -21.63278,-0.002 v 3.18359 2.91209 l 21.76758,0.0811 c 2.47171,0.6445 4.08881,1.90721 5.00391,3.8721 h -27.2012 l -0.0693,0.41701 c -0.16901,1.0009 -0.25,1.95409 -0.25,2.85739 0,1.29291 0.17279,2.48241 0.5195,3.5674 1.93558,5.3398 5.83197,8.4668 11.44528,9.19431 l 0.0352,0.005 h 21.53421 v -0.0264 h 0.78409 v -12.81931 z m -6.04391,2.90131 c 0,1.27606 0,2.55212 0,3.8282 l -16.43069,-0.0586 c -0.91037,-0.21574 -2.7717,-0.80489 -4.1622,-2.50005 -0.35471,-0.43242 -0.62164,-0.86716 -0.8241,-1.26955 6.80825,-0.0709 14.60873,0.0709 21.41699,1e-5"
   id="path552"
   style="fill:#ffffff;fill-opacity:1" />
	<path
   fill="#777676"
   d="m 348.7012,176.81729 c 0.004,-0.13379 0.0166,-0.27139 0.0166,-0.4043 0.004,-3.2285 -1.03519,-6.1142 -3.08499,-8.5771 l -0.3848,0.32031 0.36429,-0.3428 c -2.46869,-2.6299 -5.43848,-4.14551 -8.83688,-4.4931 l -21.63181,-0.002 v 3.18069 2.91501 l 21.76849,0.0801 c 2.4707,0.64551 4.08893,1.90721 5.00293,3.8721 h -27.20312 l -0.0693,0.41701 c -0.1651,1.00189 -0.24509,1.95499 -0.24509,2.8564 -0.002,1.293 0.16989,2.4834 0.51752,3.56839 1.93167,5.3398 5.83209,8.46581 11.44537,9.1953 l 0.0361,0.004 h 21.5332 v -0.041 h 0.77151 v -12.54891 z m -6.044,2.6465 c 0,1.27574 0,2.55147 0,3.82721 l -16.41891,-0.0586 c -0.90848,-0.21475 -2.77078,-0.80255 -4.16071,-2.49808 -0.3548,-0.43279 -0.62155,-0.86792 -0.8237,-1.27052 6.54724,-0.0573 14.85607,0.0573 21.40332,0"
   id="path554"
   style="fill:#ffffff;fill-opacity:1" />
</g>
<g
   id="g558"
   transform="translate(-112.0518,-76.0937)">
</g>
<g
   id="g560"
   transform="translate(-112.0518,-76.0937)">
</g>
<g
   id="g562"
   transform="translate(-112.0518,-76.0937)">
</g>
<g
   id="g564"
   transform="translate(-112.0518,-76.0937)">
</g>
<g
   id="g566"
   transform="translate(-112.0518,-76.0937)">
</g>
<g
   id="g568"
   transform="translate(-112.0518,-76.0937)">
</g>
<g
   id="g570"
   transform="translate(-112.0518,-76.0937)">
</g>
<g
   id="g572"
   transform="translate(-112.0518,-76.0937)">
</g>
<g
   id="g574"
   transform="translate(-112.0518,-76.0937)">
</g>
<g
   id="g576"
   transform="translate(-112.0518,-76.0937)">
</g>
<g
   id="g578"
   transform="translate(-112.0518,-76.0937)">
</g>
<g
   id="g580"
   transform="translate(-112.0518,-76.0937)">
</g>
</svg>
